<svg width="35" height="35" viewBox="0 0 35 35" fill="none" xmlns="http://www.w3.org/2000/svg">
<path d="M23.0962 20.891C22.9503 20.9046 22.8051 20.8597 22.6923 20.7663C22.5795 20.6728 22.5084 20.5384 22.4947 20.3926L21.7436 12.382L12.2496 23.8385C12.1561 23.9513 12.0216 24.0224 11.8756 24.0361C11.7296 24.0498 11.5842 24.0049 11.4714 23.9114C11.3585 23.8178 11.2874 23.6833 11.2737 23.5373C11.26 23.3914 11.3049 23.246 11.3984 23.1331L20.8924 11.6766L12.8817 12.4263C12.7388 12.4347 12.5981 12.3872 12.4895 12.2938C12.3808 12.2005 12.3127 12.0687 12.2993 11.9261C12.2859 11.7835 12.3285 11.6413 12.4179 11.5294C12.5073 11.4175 12.6367 11.3447 12.7787 11.3263L22.1183 10.4515C22.2641 10.4379 22.4094 10.4828 22.5222 10.5762C22.635 10.6697 22.706 10.8041 22.7198 10.95L23.5947 20.2895C23.6082 20.4354 23.5633 20.5806 23.4699 20.6934C23.3764 20.8062 23.242 20.8773 23.0962 20.891Z" fill="white"/>
<rect x="0.5" y="0.5" width="34" height="34" rx="17" stroke="white"/>
</svg>
